<svg xmlns="http://www.w3.org/2000/svg" viewBox="0 0 512 512">
  <defs><linearGradient id="g" x1="0" y1="0" x2="1" y2="1"><stop stop-color="#35579b"/><stop offset="1" stop-color="#20b8a6"/></linearGradient></defs>
  <rect width="512" height="512" rx="112" fill="url(#g)"/>
  <path d="M167 177h178c22 0 40 18 40 40v164c0 22-18 40-40 40H167c-22 0-40-18-40-40V217c0-22 18-40 40-40Z" fill="#fff"/>
  <path d="M205 176v-31c0-25 20-45 45-45h12c25 0 45 20 45 45v31" fill="none" stroke="#fff" stroke-width="24" stroke-linecap="round"/>
  <path d="m183 269 35 35 76-82" fill="none" stroke="#20b8a6" stroke-width="25" stroke-linecap="round" stroke-linejoin="round"/>
  <path d="M183 351h147" stroke="#d9e3ee" stroke-width="22" stroke-linecap="round"/>
  <circle cx="177" cy="421" r="18" fill="#ffd36a"/><circle cx="335" cy="421" r="18" fill="#ffd36a"/>
</svg>

